<svg xmlns="http://www.w3.org/2000/svg" xmlns:xlink="http://www.w3.org/1999/xlink" version="1.1" viewBox="0 0 48 48">
  <defs>
    <style>
      .st0 {
        fill: url(#linear-gradient);
      }

      .st1 {
        isolation: isolate;
      }

      .st2 {
        fill: #2b2b2b;
        mix-blend-mode: multiply;
      }
    </style>
    <linearGradient id="linear-gradient" x1="21.26" y1="11.68" x2="30.79" y2="64.77" gradientUnits="userSpaceOnUse">
      <stop offset="0" stop-color="#eee"/>
      <stop offset=".11" stop-color="#e5e8e6"/>
      <stop offset=".29" stop-color="#ced9d0"/>
      <stop offset=".51" stop-color="#a9c0ad"/>
      <stop offset=".76" stop-color="#769f7c"/>
      <stop offset=".99" stop-color="#437d4b"/>
    </linearGradient>
  </defs>
  <g class="st1">
    <g id="Layer_1">
      <path class="st0" d="M45.92,26.36c-.14-.2-.29-.39-.44-.58.6-1.28.9-2.73.9-4.3,0-1.85-.45-3.5-1.28-4.93-1.93-3.33-4.75-4.79-9.69-5.12-3.7-.25-8.2-.03-8.2-.03.48-2.99-.28-6.19-1.58-7.85-1.46-1.86-4.44-1.57-5.66-1.26-1.34.33-3.67,1.35-3.67,3.82l.03,2.49-2.07-3.01c-1.33-2.18-3.62-2.48-4.91-2.48h-.86C4.29,3.09.65,4.88.65,11.3l-.03,15.84c0,4.3,2.86,5.26,6.07,5.26,1.91,0,5.37-.96,5.36-3.86l-.06-3.09s3.16,3.3,5.63,6.95l2.16,3.55c2.58,3.6,4.38,7.22,9.08,7.22h7.21c1.34,0,2.67-.21,3.97-.62,1.38-.44,2.64-1.1,3.73-1.97,1.2-.94,2.16-2.11,2.84-3.45.73-1.41,1.1-3.02,1.1-4.79,0-2.28-.61-4.29-1.8-5.99Z"/>
      <path class="st2" d="M8.46,7.09l12.1,17.22v-11.32c0-.99-.02-1.99-.07-2.99-.05-.99-.19-1.97-.41-2.93h3.49c-.23.96-.37,1.94-.41,2.93-.05.99-.07,1.99-.07,2.99v8.83c0,.99.02,1.99.07,3,.05,1,.18,1.99.41,2.95h-3.84L7.71,10.69v11.15c0,.99.02,1.99.07,2.99s.18,1.97.41,2.93h-3.49c.23-.96.37-1.94.41-2.93.05-.99.07-1.99.07-2.99v-8.83c0-.99-.02-1.99-.07-2.99-.05-.99-.19-1.97-.41-2.93,0,0,3.76,0,3.76,0Z"/>
      <path class="st2" d="M34.47,15.11c.91,0,1.83.13,2.75.38.92.25,1.77.63,2.57,1.15.78.52,1.41,1.17,1.89,1.97s.71,1.75.71,2.87-.23,2.11-.68,2.92c-.46.81-1.05,1.47-1.77,1.99,1.09.52,2.01,1.28,2.72,2.29.71,1.01,1.07,2.23,1.07,3.68,0,1.12-.22,2.1-.66,2.95-.43.85-1.02,1.57-1.76,2.14-.74.58-1.56,1.01-2.47,1.3s-1.83.43-2.76.43h-8.97c.27-1.12.43-2.25.48-3.41s.08-2.32.08-3.48v-10.28c0-1.16-.02-2.32-.08-3.48s-.22-2.3-.48-3.41h7.36ZM30.77,25.45h3.08c1.03,0,1.94-.11,2.72-.33s1.38-.61,1.81-1.18c.43-.57.66-1.39.66-2.47s-.26-1.9-.76-2.49c-.51-.58-1.17-.98-2.01-1.21-.83-.22-1.74-.34-2.73-.34h-2.76v8.02ZM30.77,36.84h4.38c1.55,0,2.81-.34,3.79-1.04s1.45-1.85,1.43-3.46-.5-2.75-1.45-3.41-2.19-.99-3.74-.99h-4.41v8.91h0Z"/>
    </g>
  </g>
</svg>
