<?xml version="1.0" encoding="UTF-8" standalone="no"?>
<svg
   xmlns:svg="http://www.w3.org/2000/svg"
   xmlns="http://www.w3.org/2000/svg"
   width="3000"
   height="1833.3578">
  
  <g transform="translate(1.1480989e-6,1427.3766)">

    <path d="M 2083.3032,-1427.0766 C 1694.4344,-1427.0766 1305.5655,-1427.0766 916.69664,-1427.0766 C 781.39723,-1383.9296 650.0712,-1327.5007 527.43529,-1255.7136 C 424.57603,-1195.3494 327.64631,-1123.9794 243.5711,-1039.1505 C 165.10693,-959.88913 97.837582,-868.19454 53.880538,-765.28599 C 21.346102,-689.35191 2.2532565,-607.39163 0.47237099,-524.69259 C -1.4746133,-443.97126 13.120469,-363.13713 41.32414,-287.5643 C 80.390323,-182.43782 144.3871,-87.925678 220.57948,-6.1836164 C 302.24352,81.355183 397.79375,155.15367 499.66522,217.67116 C 620.28254,291.50247 750.04529,349.84004 883.9667,394.96792 C 894.84711,398.62849 905.75803,402.1984 916.69664,405.68118 C 1305.5655,405.68118 1694.4344,405.68118 2083.3032,405.68118 C 2222.3158,361.34383 2357.2234,302.97491 2482.7158,228.31905 C 2591.3379,163.51591 2693.2392,86.23392 2779.6598,-6.4409689 C 2855.8257,-88.207495 2919.7852,-182.74746 2958.7978,-287.89397 C 2986.9003,-363.31158 3001.4481,-443.9605 2999.532,-524.50082 C 2997.7752,-607.26449 2978.6795,-689.29355 2946.119,-765.28599 C 2902.1625,-868.19469 2834.8928,-959.88913 2756.4285,-1039.1505 C 2672.3534,-1123.9794 2575.4238,-1195.3495 2472.5644,-1255.7136 C 2349.9285,-1327.5008 2218.6024,-1383.9296 2083.3032,-1427.0766 z" style="fill:#c8ebff" />

    <g transform="matrix(0.9146688,0,0,-0.9146635,1499.9999,-510.69767)">
      


<path d="M 1134.475,120.528 L 1143.842,110.572 L 1148.419,91.126 L 1146.488,81.919 L 1142.223,90.89 L 1139.668,87.4 L 1140.296,69.477 L 1128.292,77.912 L 1121.647,97.155 L 1115.196,90.642 L 1113.736,95.228 L 1108.487,85.216 L 1106.64,87.907 L 1107.662,96.733 L 1117.67,107.675 L 1121.775,99.744 L 1134.007,111.713 L 1134.475,120.528 z" style="fill:#999;stroke-width:0" />
<path d="M -540.339,752.14 L -537.035,752.234 L -539.544,746.332 L -535.766,748.057 L -527.281,739.421 L -524.651,726.236 L -537.377,731.441 L -558.179,723.379 L -554.792,730.611 L -565.275,728.518 L -540.339,752.14 z" style="fill:#999;stroke-width:0" />
<path d="M -478.794,883.991 L -490.021,885.851 L -481.701,894.919 L -473.826,890.088 L -478.794,883.991 z" style="fill:#999;stroke-width:0" />
<path d="M -518.723,844.332 L -497.427,841.25 L -516.862,828.921 L -527.56,830.177 L -526.371,826.859 L -538.192,822.698 L -518.723,844.332 z" style="fill:#999;stroke-width:0" />
<path d="M 303.045,822.038 L 317.952,821.919 L 317.405,813.266 L 323.578,803.811 L 339.697,795.216 L 326.342,792.769 L 317.042,794.868 L 314.538,802.296 L 300.08,803.422 L 303.045,822.038 z" style="fill:#999;stroke-width:0" />
<path d="M 1147.467,-512.419 L 1155.293,-519.624 L 1170.797,-517.338 L 1159.225,-535.642 L 1161.427,-532.51 L 1137.283,-548.941 L 1133.661,-547.19 L 1135.369,-535.573 L 1147.467,-512.419 z" style="fill:#999;stroke-width:0" />
<path d="M 1091.968,-69.054 L 1085.53,-65.046 L 1088.942,-49.888 L 1082.5,-37.036 L 1094.243,9.352 L 1101.378,16.043 L 1130.917,11.894 L 1138.589,21.408 L 1139.422,14.945 L 1131.88,4.479 L 1096.079,3.349 L 1094.436,-9.324 L 1101.359,-17.141 L 1120.705,-7.197 L 1124.492,-11.181 L 1105.678,-22.19 L 1117.923,-52.906 L 1106.261,-59.728 L 1102.422,-33.915 L 1097.787,-33.883 L 1091.968,-69.054 z" style="fill:#999;stroke-width:0" />
<path d="M 1002.239,-16.285 L 993.102,4.617 L 996.778,23.497 L 1011.632,19.41 L 1017.044,35.132 L 1027.407,37.479 L 1038.638,56.952 L 1050.346,62.746 L 1058.936,82.095 L 1068.293,79.282 L 1069.152,72.426 L 1084.016,65.026 L 1076.581,60.615 L 1077.596,55.475 L 1066.964,43.328 L 1082.629,13.535 L 1075.697,12.424 L 1071.448,4.54 L 1055.503,-43.606 L 1045.34,-50.273 L 1040.537,-40.941 L 1029.248,-36.807 L 1021.035,-41.45 L 1018.006,-36.334 L 1007.17,-35.866 L 1002.239,-16.285 z" style="fill:#999;stroke-width:0" />
<path d="M 909.882,-4.045 L 899.778,19.7 L 889.771,27.274 L 865.542,65.256 L 888.231,59.573 L 915.83,25.958 L 937.07,12.774 L 937.031,3.907 L 944.584,0.456 L 942.528,-10.02 L 950.148,-13.098 L 954.193,-27.57 L 961.383,-29.604 L 964.599,-36.16 L 961.439,-67.73 L 951.9,-66.412 L 951.665,-70.124 L 931.099,-47.456 L 909.882,-4.045 z" style="fill:#999;stroke-width:0" />
<path d="M -621.009,225.519 L -609.648,214.942 L -610.43,210.487 L -631.292,211.043 L -637.083,203.796 L -642.613,210.105 L -661.72,210.646 L -661.811,214.658 L -644.603,215.584 L -651.673,226.112 L -649.273,229.68 L -621.009,225.519 z" style="fill:#999;stroke-width:0" />
<path d="M -705.158,251.431 L -726.117,263.764 L -747.766,254.669 L -735.047,266.191 L -710.443,268.008 L -657.968,232.28 L -685.987,229.64 L -689.031,231.406 L -683.125,236.9 L -693.667,242.602 L -696.712,250.228 L -705.158,251.431 z" style="fill:#999;stroke-width:0" />
<path d="M 1074.909,187.801 L 1070.405,198.658 L 1073.753,196.825 L 1074.699,201.166 L 1070.773,224.438 L 1071.81,228.243 L 1083.677,227.886 L 1091.7,210.378 L 1086.92,188.135 L 1092.688,173.78 L 1109.61,171.85 L 1117.233,155.941 L 1101.71,170.644 L 1103.311,162.836 L 1094.905,170.931 L 1085.206,170.194 L 1084.149,180.105 L 1081.766,178.025 L 1074.909,187.801 z" style="fill:#999;stroke-width:0" />
<path d="M 1116.638,499.669 L 1111.618,512.42 L 1118.962,511.692 L 1113.586,515.762 L 1116.294,517.483 L 1137.609,495.605 L 1141.118,476.264 L 1156.589,449.057 L 1155.956,440.304 L 1151.855,446.133 L 1151.388,441.687 L 1147.69,442.68 L 1149.575,434.64 L 1144.27,439.646 L 1140.989,433.637 L 1129.793,437.704 L 1135.678,427.621 L 1132.503,419.362 L 1124.726,421.771 L 1121.507,431.112 L 1113.968,432.424 L 1099.484,422.045 L 1089.072,420.843 L 1087.184,424.713 L 1096.343,441.116 L 1117.861,442.583 L 1113.652,465.25 L 1116.473,467.349 L 1120.366,458.524 L 1127.64,477.525 L 1116.638,499.669 z" style="fill:#999;stroke-width:0" />
<path d="M -0.45,597.292 L 1.36,589.194 L 13.083,586.616 L 6.671,573.782 L 9.782,568.403 L -40.998,557.792 L -18.513,574.946 L -23.946,571.979 L -38.648,577.276 L -29.33,583.593 L -33.404,587.708 L -23.053,593.296 L -19.466,603.373 L -25.104,604.745 L -23.28,610.723 L -37.008,611.263 L -33.42,618.617 L -36.327,624.821 L -39.898,616.187 L -37.196,629.606 L -42.132,630.777 L -34.995,650.499 L -21.315,652.18 L -27.853,642.427 L -12.486,639.832 L -20.833,625.322 L -12.015,618.905 L -0.45,597.292 z" style="fill:#999;stroke-width:0" />
<path d="M -430.238,564.579 L -431.239,561.48 L -425.329,566.792 L -421.861,564.81 L -425.881,561.892 L -419.509,560.244 L -421.973,556.941 L -407.594,556.52 L -414.507,544.675 L -414.44,540.819 L -407.001,544.144 L -413.131,527.375 L -419.581,529.242 L -417.012,539.909 L -430.613,530.63 L -434.083,530.769 L -423.582,537.908 L -455.824,538.973 L -456.992,542.758 L -448.876,549.501 L -452.021,549.718 L -424.225,580.769 L -417.088,583.041 L -430.238,564.579 z" style="fill:#999;stroke-width:0" />
<path d="M 1100.257,525.095 L 1094.724,537.744 L 1100.309,541.228 L 1085.033,565.566 L 1106.888,553.689 L 1120.039,553.323 L 1130.649,544.646 L 1123.173,536.748 L 1125.965,527.414 L 1101.057,529.915 L 1111.778,522.528 L 1108.066,516.679 L 1100.257,525.095 z" style="fill:#999;stroke-width:0" />
<path d="M -73.165,579.661 L -76.768,579.923 L -66.983,585.499 L -70.024,585.52 L -66.005,591.634 L -72.095,593.663 L -71.155,603.824 L -62.091,603.919 L -55.247,614.8 L -43.23,612.778 L -39.664,606.675 L -45.318,598.103 L -46.767,581.386 L -71.094,573.634 L -73.165,579.661 z" style="fill:#999;stroke-width:0" />
<path d="M 1362.884,-82.842 L 1355.875,-80.964 L 1349.275,-71.438 L 1360.524,-72.517 L 1364.819,-66.968 L 1364.852,-71.155 L 1372.447,-71.613 L 1380.026,-64.035 L 1379.946,-56.029 L 1386.893,-58.492 L 1382.439,-73.111 L 1362.884,-82.842 z" style="fill:#999;stroke-width:0" />
<path d="M 1342.401,-104.923 L 1345.958,-117.325 L 1363.697,-135.293 L 1360.043,-139.012 L 1338.568,-132.226 L 1324.349,-105.124 L 1311.888,-98.523 L 1304.902,-97.497 L 1292.983,-119.1 L 1277.221,-116.097 L 1269.068,-103.085 L 1248.926,-107.218 L 1255.106,-95.038 L 1261.142,-96.437 L 1256.125,-70.598 L 1219.815,-48.486 L 1218.652,-37.59 L 1210.162,-52.167 L 1203.435,-34.092 L 1218.296,-31.569 L 1219.136,-27.632 L 1202.859,-27.411 L 1200.343,-20.133 L 1193.728,-18.718 L 1195.484,-10.91 L 1205.994,-4.522 L 1220.74,-9.995 L 1221.826,-28.361 L 1230.887,-42.723 L 1255.899,-18.003 L 1314.841,-48.623 L 1324.621,-59.949 L 1326.896,-71.441 L 1343.266,-81.669 L 1343.227,-87.578 L 1335.557,-89.844 L 1342.401,-104.923 z" style="fill:#999;stroke-width:0" />
<path d="M 997.79,-93.805 L 969.739,-89.256 L 968.044,-84.207 L 956.94,-80.078 L 967.488,-71.473 L 975.835,-71.038 L 987.006,-81.565 L 1001.004,-83.213 L 1006.893,-77.163 L 1022.565,-85.559 L 1024.117,-91.854 L 1037.869,-94.631 L 1037.711,-107.034 L 997.79,-93.805 z" style="fill:#999;stroke-width:0" />
<path d="M 1287.691,-141.768 L 1287.944,-183.915 L 1295.718,-185.833 L 1298.879,-192.102 L 1295.122,-246.111 L 1303.017,-249.902 L 1310.581,-262.972 L 1308.078,-292.004 L 1311.473,-288.478 L 1315.798,-296.792 L 1312.805,-306.194 L 1319.114,-322.087 L 1317.604,-338.117 L 1304.662,-374.428 L 1284.566,-403.938 L 1211.667,-480.467 L 1193.269,-483.058 L 1173.771,-494.723 L 1172.478,-485.123 L 1167.789,-485.798 L 1170.835,-478.948 L 1154.766,-488.469 L 1141.487,-481.861 L 1136.478,-475.34 L 1137.072,-466.314 L 1145.771,-445.002 L 1135.324,-446.091 L 1144.316,-429.058 L 1135.673,-439.654 L 1128.228,-441.312 L 1152.86,-409.008 L 1122.006,-437.126 L 1118.175,-431.319 L 1123.88,-405.917 L 1105.949,-391.312 L 1057.333,-396.508 L 1039.244,-404.181 L 1030.051,-413.487 L 999.026,-412.645 L 975.103,-424.626 L 964.709,-420.365 L 959.589,-412.641 L 976.709,-385.483 L 981.693,-353.631 L 980.234,-315.818 L 982.78,-321.761 L 984.162,-309.276 L 985.12,-319.012 L 988.693,-315.475 L 987.72,-295.683 L 1003.256,-263.888 L 1000.905,-271.375 L 1028.441,-251.349 L 1069.983,-240.825 L 1086.264,-223.22 L 1089.632,-209.798 L 1096.366,-202.594 L 1097.945,-213.812 L 1102.57,-200.352 L 1110.878,-202.937 L 1113.424,-192.21 L 1130.522,-173.709 L 1130.99,-176.938 L 1138.576,-171.988 L 1144.074,-176.348 L 1147.072,-185.021 L 1144.037,-193.604 L 1150.039,-185.433 L 1159.045,-190.472 L 1160.849,-176.197 L 1170.101,-168.428 L 1171.289,-160.08 L 1193.603,-152.568 L 1191.62,-141.444 L 1208.021,-152.538 L 1221.781,-152.878 L 1222.99,-158.701 L 1228.441,-151.746 L 1231.803,-156.822 L 1222.665,-171.028 L 1221.117,-168.343 L 1214.009,-190.954 L 1218.727,-195.401 L 1217.982,-202.676 L 1225.287,-202.609 L 1242.988,-225.744 L 1251.616,-224.053 L 1265.657,-196.251 L 1275.581,-155.034 L 1283.24,-141.276 L 1287.691,-141.768 z " style="fill:#999;stroke-width:0" />
<path d="M 432.13,-225.489 L 411.756,-279.73 L 391.613,-286.935 L 382.947,-276.729 L 380.332,-255.189 L 394.324,-223.525 L 391.753,-198.678 L 396.676,-184.743 L 411.655,-177.373 L 414.222,-181.243 L 416.968,-173.567 L 421.473,-175.554 L 441.077,-138.591 L 448,-147.099 L 450.845,-174.451 L 444.315,-179.2 L 432.13,-225.489 z" style="fill:#999;stroke-width:0" />
<path d="M 1383.802,-540.313 L 1361.074,-555.688 L 1353.601,-554.609 L 1369.495,-541.206 L 1368.458,-528.838 L 1388.771,-514.879 L 1398.93,-501.717 L 1410.583,-466.391 L 1407.955,-473.302 L 1412.775,-476.157 L 1402.014,-498.215 L 1402.518,-502.216 L 1407.943,-497.613 L 1402.452,-510.886 L 1406.922,-516.315 L 1417.976,-511.442 L 1418.462,-514.715 L 1383.802,-540.313 z" style="fill:#999;stroke-width:0" />
<path d="M 1266.657,-606.761 L 1256.345,-609.733 L 1249.222,-599.304 L 1279.409,-578.405 L 1313.039,-565.989 L 1348.052,-541.867 L 1343.348,-551.133 L 1353.268,-549.347 L 1343.009,-560.401 L 1313.86,-582.536 L 1301.522,-582.576 L 1266.657,-606.761 z" style="fill:#999;stroke-width:0" />
<path d="M -641.622,857.837 L -643.771,855.624 L -630.209,856.545 L -629.962,847.314 L -695.858,828.168 L -696.471,840.458 L -662.892,861.516 L -646.737,861.886 L -641.622,857.837 z" style="fill:#999;stroke-width:0" />
<path d="M -612.512,835.48 L -606.199,838.888 L -611.38,827.719 L -607.829,826.601 L -591.723,842.229 L -585.63,835.529 L -598.648,816.234 L -589.004,806.198 L -608.392,799.162 L -602.016,800.064 L -605.427,794.637 L -622.313,795.066 L -625.961,802.099 L -651.94,795.012 L -671.102,795.512 L -669.745,804.034 L -681.395,808.584 L -678.291,813.967 L -647.195,814.363 L -673.113,820.183 L -669.286,825.589 L -653.958,827.728 L -667.761,827.86 L -664.938,834.367 L -653.267,840.631 L -626.379,846.024 L -635.661,838.667 L -621.965,841.481 L -618.438,836.519 L -624.758,834.366 L -612.512,835.48 z" style="fill:#999;stroke-width:0" />
<path d="M -503.095,884.699 L -519.646,892.775 L -510.715,894.501 L -509.836,897.524 L -516.436,898.226 L -513.512,900.678 L -503.212,901.271 L -503.776,896.773 L -494.268,894.919 L -496.139,887.196 L -503.095,884.699 z" style="fill:#999;stroke-width:0" />
<path d="M -525.653,863.383 L -539.104,862.752 L -530.357,864.91 L -528.359,871.559 L -521.965,866.226 L -523.38,871.466 L -519.572,872.866 L -507.395,870.229 L -524.134,856.595 L -536.271,856.394 L -525.653,863.383 z" style="fill:#999;stroke-width:0" />
<path d="M -553.345,836.646 L -557.137,837.74 L -554.089,843.005 L -533.802,843.2 L -547.04,834.521 L -541.373,828.917 L -548.575,821.398 L -564.407,816.419 L -571.782,830.928 L -553.345,836.646 z" style="fill:#999;stroke-width:0" />
<path d="M -505.103,797.06 L -507.146,802.503 L -515.161,801.579 L -518.897,807.371 L -505.717,808.498 L -517.809,813.176 L -507.267,825.079 L -489.452,835.789 L -469.403,836.588 L -488.901,825.664 L -493.455,817.739 L -490.778,811.164 L -501.821,808.732 L -491.204,809.501 L -486.681,814.408 L -490.653,818.032 L -480.907,822.36 L -484.181,823.232 L -480.417,828.571 L -474.614,826.018 L -476.669,828.931 L -469.791,828.886 L -474.477,830.563 L -472.154,832.606 L -451.501,835.264 L -452.195,828.007 L -461.921,817.794 L -438.557,823.467 L -427.641,820.184 L -425.731,814.77 L -429.856,812.026 L -423.235,811.846 L -428.703,808.366 L -415.281,808.641 L -415.817,803.32 L -420.6,803.243 L -403.146,796.97 L -410.53,790.328 L -401.663,793.004 L -400.034,789.424 L -409.623,786.971 L -400.597,781.451 L -412.846,781.82 L -410.163,780.313 L -415.395,775.54 L -407.901,772.958 L -406.96,768.139 L -398.953,768.161 L -399.28,758.783 L -391.848,759.142 L -394.961,755.923 L -385.598,752.693 L -408.917,733.363 L -422.139,753.3 L -428.532,751.262 L -428.817,735.046 L -419.789,730.384 L -421.863,719.632 L -429.464,708.434 L -449.423,722.452 L -439.848,705.08 L -449.059,703.266 L -469.072,715.358 L -470.832,721.717 L -465.719,722.117 L -472.557,725.752 L -475.806,735.039 L -495.52,731.167 L -501.86,736.313 L -492.677,743.676 L -468.332,743.144 L -469.031,750.254 L -449.626,761.431 L -446.483,772.175 L -451.882,777.965 L -448.039,782.04 L -461.743,779.519 L -461.744,783.342 L -455.29,783.841 L -465.673,799.441 L -467.96,793.317 L -505.103,797.06 z" style="fill:#999;stroke-width:0" />
<path d="M -449.828,887.387 L -455.642,883.825 L -463.346,887.858 L -456.917,888.447 L -461.884,892.229 L -459.158,894.417 L -441.591,896.051 L -462.428,896.95 L -463.66,899.696 L -454.475,900.967 L -462.442,903.839 L -449.664,905.717 L -456.22,906.84 L -434.695,917.239 L -428.699,915.715 L -426.443,905.102 L -418.557,906.563 L -424.968,899.353 L -419.086,897.83 L -419.529,893.849 L -436.844,888.7 L -435.87,891.812 L -444.92,884.886 L -449.828,887.387 z" style="fill:#999;stroke-width:0" />
<path d="M -132.058,708.465 L -147.324,712.16 L -149.208,714.604 L -142.627,717.571 L -145.791,722.916 L -155.651,722.739 L -141.583,725.692 L -141.951,729.284 L -157.938,730.352 L -154.835,734.295 L -151.413,732.212 L -149.682,738.251 L -144.381,735.349 L -145.675,741.55 L -142.692,740.761 L -137.442,736.714 L -137.163,727.367 L -130.145,736.954 L -125.205,732.869 L -121.211,737.253 L -116.8,733.68 L -102.015,741.29 L -93.119,739.712 L -96.167,737.031 L -89.056,730.227 L -89.367,723.041 L -121.143,707.299 L -132.058,708.465 z" style="fill:#999;stroke-width:0" />
<path d="M -304.363,929.059 L -300.944,929.289 L -309.448,926.131 L -291.635,928.143 L -282.172,919.776 L -322.699,916.214 L -313.867,913.834 L -334.216,910.566 L -304.013,913.488 L -349.722,899.521 L -345.045,899.322 L -350.753,895.44 L -382.129,893.049 L -368.831,891.445 L -384.893,891.275 L -377.724,890.425 L -384.542,889.997 L -374.411,884.534 L -401.029,873.348 L -421.647,872.188 L -406.197,868.344 L -414.535,862.802 L -426.56,860.771 L -424.906,863.422 L -434.767,867.089 L -447.838,863.123 L -466.875,867.493 L -448.837,873.218 L -446.959,880.419 L -440.459,880.483 L -434.622,873.94 L -418.191,880.471 L -428.396,875.894 L -434.963,880.463 L -424.841,885.768 L -440.98,883.166 L -430.792,889.907 L -406.6,888.831 L -416.487,890.519 L -414.251,896.243 L -418.726,900.1 L -413.483,901.066 L -414.756,905.203 L -405.261,904.587 L -396.84,896.214 L -390.42,896.984 L -397.464,897.757 L -399.755,904.407 L -359.349,909.335 L -375.048,909.298 L -362.426,915.172 L -390.85,906.845 L -397.647,906.247 L -388.947,909.18 L -408.099,907.232 L -386.511,912.522 L -415.315,908.501 L -420.705,911.737 L -396.845,914.227 L -419.107,913.157 L -402.179,917.657 L -420.211,916.986 L -413.484,919.344 L -423.405,920.041 L -420.492,921.776 L -392.872,922.567 L -396.219,924.012 L -390.003,927.147 L -375.041,921.786 L -375.772,926.888 L -360.341,931.264 L -352.77,930.385 L -349.959,925.061 L -346.61,931.452 L -304.363,929.059 z" style="fill:#999;stroke-width:0" />
<path d="M -468.539,856.722 L -450.192,853.886 L -433.699,858.003 L -427.907,854.035 L -438.239,844.179 L -448.889,843.816 L -452.198,848.592 L -455.033,844.994 L -488.957,846.823 L -497.187,850.453 L -487.344,865.341 L -496.592,866.371 L -500.556,872.314 L -491.854,875.737 L -483.064,871.889 L -488.28,867.925 L -474.434,870.05 L -468.52,865.068 L -483.294,860.339 L -473.321,861.861 L -476.737,857.86 L -468.539,856.722 z" style="fill:#999;stroke-width:0" />
<path d="M -323.353,805.219 L -310.205,818.79 L -316.019,851.774 L -332.495,857.163 L -354.313,857.393 L -353.757,853.299 L -364.933,858.134 L -357.706,861.942 L -365.53,863.733 L -362.291,866.367 L -369.715,864.945 L -364.815,868.967 L -345.697,867.177 L -339.109,870.824 L -359.801,872.438 L -356.621,873.855 L -368.942,879.416 L -363.183,883.477 L -328.047,887.847 L -309.043,898.349 L -325.506,897.985 L -326.254,901.152 L -292.299,908.52 L -282.872,916.705 L -271.124,910.794 L -277.776,917.342 L -255.776,920.422 L -252.296,920.44 L -252.34,914.144 L -236.612,912.904 L -239.327,915.151 L -235.597,914.781 L -236.96,921.155 L -233.496,921.902 L -210.907,913.174 L -202.488,917.943 L -210.679,923.031 L -187.178,920.339 L -205.043,927.503 L -174.396,925.62 L -178.238,926.141 L -176.329,930.289 L -159.622,932.007 L -120.701,928.624 L -164.077,924.608 L -117.919,926.218 L -122.465,922.174 L -100.369,920.834 L -106.431,916.822 L -159.065,912.523 L -122.1,912.749 L -133.487,907.807 L -106.541,914.036 L -106.911,907.735 L -121.129,896.349 L -96.534,909.216 L -86.174,907.218 L -71.029,912.075 L -58.161,908.759 L -71.695,900.39 L -104.027,897.45 L -78.778,896.936 L -100.655,892.213 L -100.416,888.975 L -86.693,892.326 L -112.553,867.857 L -98.849,864.497 L -106.732,865.967 L -97.858,861.454 L -97.195,855.726 L -120.388,854.643 L -108.222,849.251 L -113.335,846.692 L -107.102,844.819 L -107.389,837.169 L -119.022,841.952 L -113.203,837.913 L -117.146,836.644 L -115.211,832.301 L -106.294,829.08 L -123.514,828.26 L -125.45,825.628 L -116.109,820.452 L -126.109,816.545 L -135.532,820.795 L -152.823,817.459 L -143.846,814.684 L -153.089,812.026 L -142.716,810.4 L -148.201,803.948 L -141.569,806.847 L -128.602,797.06 L -128.817,786.761 L -142.035,787.085 L -144.745,793.73 L -161.214,801.142 L -150.737,794.271 L -167.159,791.649 L -172.71,786.389 L -159.296,785.559 L -169.635,782.731 L -166.292,781.214 L -132.52,781.989 L -167.682,765.488 L -196.201,760.005 L -199.171,765.534 L -199.451,759.095 L -216.481,744.754 L -238.254,736.43 L -240.966,737.776 L -235.892,741.896 L -238.936,741.808 L -244.483,735.262 L -266.252,728.182 L -263.754,721.523 L -270.68,719.289 L -267.325,719.015 L -268.442,712.057 L -284.841,702.866 L -283.748,693.427 L -299.453,674.805 L -308.645,674.824 L -308.386,684.072 L -324.957,683.632 L -337.832,715.515 L -324.16,726.277 L -338.031,722.813 L -335.115,734.221 L -339.442,741.568 L -333.345,750.42 L -336.263,755.485 L -329.662,763.304 L -315.731,764.766 L -314.015,767.72 L -324.261,768.355 L -305.9,775.16 L -308.217,777.837 L -301.178,785.556 L -320.705,792.221 L -316.157,794.828 L -300.473,789.993 L -305.987,798.163 L -301.886,800.375 L -309.11,801.503 L -303.141,803.081 L -308.833,807.082 L -318.192,801.41 L -323.353,805.219 z" style="fill:#999;stroke-width:0" />
<path d="M -577.811,865.766 L -571.059,865.951 L -566.742,875.339 L -556.557,878.307 L -563.653,868.346 L -553.072,868.975 L -562.471,860.082 L -603.743,856.023 L -609.916,858.903 L -585.596,863.849 L -615.904,865.154 L -602.335,869.304 L -610.802,869.183 L -593.976,877.483 L -587.642,877.316 L -589.293,874.25 L -582.428,873.497 L -583.902,866.898 L -577.811,865.766 z" style="fill:#999;stroke-width:0" />
<path d="M 81.27,891.116 L 106.297,878.646 L 97.603,873.774 L 87.614,853.147 L 86.237,857.466 L 73.256,861.657 L 87.624,866.414 L 71.088,866.493 L 88.575,873.397 L 84.442,876.69 L 78.96,873.887 L 78.531,877.329 L 68.669,870.884 L 53.374,886.922 L 68.485,888.195 L 61.457,885.626 L 70.582,882.105 L 73.862,887.802 L 83,878.788 L 78.035,887.036 L 81.27,891.116 z" style="fill:#999;stroke-width:0" />
<path d="M 99.849,885.497 L 106.394,887.754 L 86.366,892.531 L 95.316,891.309 L 93.08,893.603 L 97.805,895.75 L 108.535,891.463 L 111.669,896.646 L 115.293,892.555 L 132.884,892.353 L 119.345,882.109 L 99.849,885.497 z" style="fill:#999;stroke-width:0" />
<path d="M 316.085,852.56 L 339.334,857.21 L 350.401,864.816 L 361.914,860.732 L 325.323,839.332 L 328.447,837.571 L 319.576,832.706 L 318.844,822.432 L 307.083,823.42 L 300.637,826.752 L 309.826,830.875 L 303.658,841.298 L 316.085,852.56 z" style="fill:#999;stroke-width:0" />
<path d="M 213.838,352.616 L 247.387,345.018 L 261.698,352.842 L 274.096,350.402 L 280.222,326.799 L 311.985,270.136 L 313.955,257.757 L 325.177,246.967 L 332.466,212.581 L 345.601,199.621 L 355.943,171.893 L 357.762,174.444 L 370.805,163.746 L 388.806,143.035 L 391.699,135.868 L 385.037,129.945 L 404.324,116.499 L 412.544,121.591 L 422.274,120.556 L 426.873,125.893 L 435.664,125.704 L 435.877,121.781 L 438.669,127.348 L 459.643,134.657 L 461.999,119.908 L 436.36,50.959 L 368.169,-29.251 L 357.772,-53.217 L 353.571,-70.589 L 359.74,-79.77 L 356.721,-93.318 L 361.411,-112.425 L 367.596,-121.652 L 363.347,-145.09 L 365.476,-163.273 L 352.972,-187.142 L 330.714,-200.095 L 307.647,-223.609 L 312.754,-251.131 L 308.92,-273.097 L 286.93,-285.991 L 279.784,-318.719 L 235.406,-371.03 L 209.087,-382.403 L 189.751,-380.12 L 166.241,-387.615 L 155.363,-381.301 L 151.11,-366.34 L 155.106,-356.27 L 141.45,-319.282 L 131.586,-305.504 L 126.52,-251.453 L 104.158,-200.337 L 109.818,-158.621 L 122.214,-136.424 L 124.66,-121.495 L 107.756,-53.499 L 80.288,-9.697 L 84.311,2.771 L 87.218,1.046 L 87.644,44.569 L 75.864,53.789 L 74.171,49.998 L 56.523,46.906 L 45.136,65.819 L 35.119,71.092 L 14.587,68.631 L -17.612,52.173 L -38.543,57.481 L -68.159,47.407 L -80.369,53.556 L -115.305,86.117 L -120.041,102.261 L -138.754,124.905 L -138.125,131.549 L -134.152,132.14 L -141.529,130.852 L -150.185,136.661 L -150.631,147.288 L -147.156,147.617 L -154.414,163.713 L -147.008,177.763 L -142.484,205.352 L -146.25,216.465 L -143.904,227.941 L -149.905,235.249 L -125.574,290.974 L -111.379,311.113 L -100.002,314.531 L -86.458,327.33 L -75.599,364.19 L -57.476,377.813 L -44.28,399.878 L -37.608,391.944 L -15.228,390.809 L 11.069,406.663 L 52.986,413.415 L 70.541,411.423 L 80.261,415.89 L 91.57,412.923 L 87.572,403.017 L 93.353,392.854 L 83.233,378.368 L 85.587,375.19 L 127.927,360.368 L 133.944,349.633 L 163.404,337.781 L 170.816,345.836 L 168.568,357.076 L 181.26,367.107 L 213.838,352.616 z M 327.416,50.761 L 333.54,28.3 L 327.416,50.761 z M 309.966,2.658 L 291.09,-1.578 L 290.546,-30.87 L 294.118,-25.3 L 299.291,-30.251 L 305.944,-26.919 L 315.201,-4.686 L 309.966,2.658 z M 131.454,142.884 L 135.485,149.646 L 118.832,159.666 L 125.116,141.192 L 131.454,142.884 z M 277.383,-91.245 L 281.09,-98.252 L 277.954,-79.815 L 270.76,-68.808 L 267.702,-38.143 L 267.1,-71.766 L 277.383,-91.245 z M 312.444,-123.61 L 312.818,-112.137 L 308.377,-107.823 L 307.768,-149.852 L 310.492,-159.428 L 316.482,-162.345 L 312.444,-123.61 z" style="fill:#999;stroke-width:0" />
<path d="M -720.757,103.624 L -723.148,109.313 L -719.596,111.514 L -709.059,108.465 L -698.086,92.355 L -681.45,124.013 L -644.734,142.995 L -651.59,111.907 L -647.756,103.811 L -643.506,109.057 L -645.81,123.642 L -630.518,131.456 L -633.802,133.739 L -630.824,140.684 L -628.933,133.673 L -617.569,129.048 L -615.62,120.756 L -600.04,122.21 L -590.602,116.11 L -577.122,122.186 L -560.153,122.371 L -567.161,120.466 L -564.876,112.965 L -551.749,107.346 L -551.371,97.869 L -538.313,93.615 L -518.641,65.844 L -494.252,67.339 L -465.831,46.815 L -454.327,16.724 L -466.85,-2.976 L -467.407,-13.764 L -458.976,-11.605 L -457.209,-3.346 L -443.443,-2.467 L -441.416,-9.469 L -448.987,-28.898 L -439.799,-12.226 L -431.782,-7.474 L -408.626,-17.07 L -402.166,-30.925 L -396.813,-26.313 L -378.552,-32.993 L -364.009,-32.464 L -337.156,-56.4 L -319.898,-62.67 L -317.785,-97.683 L -351.435,-149.161 L -350.678,-197.777 L -363.093,-245.763 L -371.577,-257.512 L -393.061,-259.941 L -417.095,-280.572 L -424.306,-296.837 L -419.702,-307.351 L -421.558,-321.767 L -453.22,-389.853 L -460.145,-395.838 L -471.456,-395.254 L -491.107,-386.241 L -490.204,-392.967 L -472.059,-411.936 L -474.456,-433.115 L -497.043,-442.586 L -511.064,-440.951 L -505.723,-466.016 L -524.522,-465.346 L -526.347,-469.153 L -519.567,-481.04 L -510.613,-480.736 L -508.982,-484.659 L -519.468,-485.971 L -513.05,-489.579 L -517.951,-498.672 L -515.542,-512.457 L -525.584,-517.735 L -527.118,-526.029 L -517.268,-535.617 L -509.921,-536.467 L -505.82,-546.297 L -514.948,-558.56 L -513.857,-570.29 L -520.282,-567.378 L -519.744,-582.235 L -506.713,-595.381 L -520.508,-600.687 L -521.896,-613.349 L -529.326,-610.018 L -523.323,-605.445 L -525.345,-602.361 L -537.034,-600.349 L -539.014,-591.603 L -543.306,-588.781 L -542.103,-593.75 L -546.028,-593.279 L -554.971,-583.125 L -553.162,-580.052 L -562.002,-574.279 L -561.043,-564.126 L -567.195,-557.052 L -563.543,-556.251 L -571.902,-549.538 L -563.068,-551.851 L -574.256,-543.347 L -573.876,-537.003 L -585.672,-535.66 L -581.905,-529.742 L -584.747,-527.79 L -574.108,-530.72 L -574.7,-519.704 L -570.962,-521.099 L -576.022,-516.181 L -572.719,-511.228 L -578.318,-506.901 L -582.164,-478.355 L -594.789,-475.275 L -608.04,-428.458 L -604.891,-426.775 L -604.655,-377.147 L -615.533,-334.438 L -619.556,-247.524 L -628.2,-210.868 L -681.657,-170.591 L -716.08,-95.488 L -737.357,-69.401 L -738.54,-48.864 L -726.518,-30.948 L -736.554,-26.103 L -736.53,-12.574 L -729.335,8.666 L -719.542,14.318 L -715.537,27.806 L -708.024,31.478 L -700.206,45.791 L -705.084,47.501 L -703.141,76.239 L -709.947,96.154 L -720.757,103.624 z M -439.733,-339.26 L -442.911,-362.515 L -433.768,-347.853 L -439.733,-339.26 z M -626.15,-181.606 L -617.427,-188.775 L -614.815,-185.789 L -625.199,-176.087 L -628.572,-176.984 L -626.15,-181.606 z " style="fill:#999;stroke-width:0" />
<path d="M -790.837,184.794 L -762.394,186.098 L -747.245,175.537 L -757.347,130.066 L -744.397,104.857 L -722.667,105.546 L -729.37,84.899 L -733.145,83.792 L -741.524,94.744 L -752.04,94.731 L -769.144,117.927 L -769.505,113.849 L -776.263,118.804 L -774.965,130.113 L -789.838,157.145 L -799.684,155.453 L -820.883,164.136 L -844.295,190.328 L -862.796,184.729 L -873.423,188.811 L -918.931,218.034 L -927.61,228.668 L -932.882,242.39 L -926.788,253.69 L -927.728,267.565 L -939.146,298.632 L -948.768,308.309 L -945.415,317.484 L -958.343,346.048 L -958.356,373.208 L -968.638,384.369 L -974.379,363.708 L -963.745,319.242 L -964.331,293.087 L -957.347,280.986 L -961.909,276.045 L -974.355,298.277 L -972.297,314.428 L -975.997,323.906 L -979.342,322.788 L -987.143,333.8 L -978.206,341.598 L -985.444,360.006 L -982.815,399.3 L -988.02,412.699 L -1000.955,421.495 L -999.918,453.098 L -992.86,462.518 L -999.234,463.649 L -999.446,473.189 L -978.901,519.901 L -950.753,556.892 L -944.421,558.119 L -947.445,563.134 L -939.892,581.142 L -925.358,580.043 L -933.518,571.905 L -919.467,585.706 L -915.853,598.328 L -924.196,602.371 L -919.99,607.689 L -930.209,610.279 L -928.034,614.334 L -934.448,618.965 L -927.585,624.853 L -930.986,623.472 L -925.55,631.557 L -929.194,634.738 L -922.475,645.402 L -922.384,656.701 L -914.414,662.618 L -921.343,661.555 L -909.832,676.028 L -921.676,670.887 L -913.879,677.931 L -910.127,688.895 L -913.436,689.408 L -904.399,699.828 L -908.645,704.649 L -902.766,714.579 L -912.661,703.42 L -913.652,712.525 L -920.317,704.805 L -922.827,713.371 L -914.337,718.949 L -923.873,715.824 L -924.629,718.818 L -918.358,726.689 L -928.551,724.128 L -944.566,729.708 L -947.249,740.277 L -950.772,739.56 L -945.291,743.562 L -956.911,742.802 L -952.539,745.691 L -970.343,734.722 L -999.482,728.539 L -977.32,744.634 L -963.54,743.969 L -965.764,746.232 L -959.619,749.727 L -964.259,748.718 L -963.129,751.767 L -952.285,758.266 L -1010.366,733.086 L -1025.24,720.909 L -1088.328,699.79 L -1103.468,698.553 L -1099.894,701.249 L -1119.039,695.406 L -1099.023,704.277 L -1091.125,701.956 L -1028.96,732.629 L -1050.16,727.992 L -1048.163,736.54 L -1063.196,732.97 L -1032.76,755.341 L -1057.933,746.331 L -1056.672,752.2 L -1043.143,758.149 L -1049.065,760.804 L -1042.101,767.579 L -1045.241,767.338 L -1013.912,782.244 L -989.756,783.04 L -972.422,794.209 L -986.914,792.413 L -1001.232,796.896 L -994.033,810.456 L -962.751,815.126 L -968.135,811.188 L -959.738,807.106 L -952.676,808.424 L -952.716,812.577 L -940.555,810.521 L -949.856,811.925 L -944.573,816.08 L -951.399,820.565 L -945.133,834.86 L -898.325,847.055 L -857.701,852.96 L -854.668,850.964 L -861.218,848.806 L -859.384,846.366 L -852.77,849.782 L -854.041,846.923 L -843.6,845.225 L -844.418,840.583 L -810.309,831.748 L -790.268,811.709 L -778.783,819.654 L -740.958,823.629 L -759.183,815.016 L -730.959,824.759 L -729.787,812.037 L -716.648,818.13 L -724.08,811.831 L -704.143,813.775 L -691.883,802.9 L -678.986,800.246 L -680.445,793.998 L -692.553,791.605 L -689.81,789.094 L -661.099,789.191 L -658.677,775.414 L -650.85,786.317 L -631.306,793.387 L -651.676,790.736 L -631.615,796.222 L -628.058,785.616 L -620.876,781.034 L -597.252,782.717 L -592.804,777.711 L -589.089,781.012 L -593.703,785.005 L -584.496,786.893 L -584.411,782.64 L -579.668,783.753 L -587.959,776.66 L -584.231,774.501 L -562.356,786.201 L -561.148,788.991 L -567.329,787.885 L -555.174,795.76 L -563.73,799.243 L -564.466,804.994 L -537.302,821.803 L -538.397,803.832 L -548.034,797.031 L -539.841,793.474 L -546.434,782.653 L -531.985,791.346 L -529.596,785.525 L -538.505,775.108 L -538.069,768.432 L -510.249,783.739 L -506.327,794.493 L -493.177,792.479 L -489.276,787.437 L -491.335,780.854 L -500.673,777.402 L -502.276,766.367 L -515.019,759.363 L -529.964,756.602 L -538.254,760.968 L -540.027,755.096 L -552.679,748.376 L -565.046,755.509 L -563.342,748.961 L -551.466,746.425 L -569.124,734.842 L -587.923,729.619 L -602.909,735.38 L -592.245,730.763 L -590.968,725.187 L -604.44,723.251 L -628.723,708.96 L -649.565,681.782 L -649.576,677.595 L -641.019,678.074 L -650.115,659.11 L -636.634,661.018 L -627.769,655.263 L -611.554,638.12 L -615.692,632.355 L -608.899,636.185 L -592.044,631.26 L -603.772,609.318 L -601.702,602.441 L -607.737,598.772 L -599.33,595.631 L -605.156,587.243 L -596.454,587.248 L -576.244,598.665 L -580.439,602.209 L -573.313,626.378 L -542.826,641.828 L -539.478,664.223 L -544.568,672.304 L -529.178,680.094 L -523.728,692.851 L -527.214,693.466 L -517.515,709.568 L -488.938,710.493 L -479.769,700.708 L -480.889,695.301 L -471.877,692.045 L -475.745,682.464 L -486.463,682.847 L -476.36,680.04 L -478.21,671.134 L -492.498,664.864 L -476.907,669.131 L -474.918,663.825 L -482.943,658.27 L -473.566,664.416 L -473.427,660.316 L -460.488,667.599 L -458.702,664.829 L -440.121,682.954 L -438.916,670.922 L -442.457,669.38 L -436.947,662.396 L -442.405,657.406 L -436.356,655.57 L -434.654,645.57 L -445.58,642.025 L -440.824,641.167 L -430.478,623.146 L -418.219,618.256 L -439.784,608.272 L -446.766,609.516 L -443.603,603.309 L -417.581,612.028 L -420.879,604.436 L -412.267,606.045 L -412.697,591.76 L -451.886,570.197 L -502.781,570.735 L -549.582,536.773 L -517.114,556.55 L -493.853,559.593 L -491.959,551.976 L -511.398,547.055 L -500.777,545.087 L -503.256,529.099 L -494.805,521.049 L -484.243,521.354 L -480.047,516.786 L -504.857,507.199 L -519.886,495.54 L -523.49,501.527 L -519.406,508.129 L -522.26,506.355 L -497.281,515.592 L -508.204,516.168 L -503.082,521.427 L -556.781,499.825 L -566.414,486.306 L -563.004,476.737 L -599.243,467.569 L -610.93,448.784 L -615.014,454.508 L -614.882,443.204 L -625.477,428.392 L -619.486,453.237 L -622.926,452.132 L -627.234,438.97 L -629.707,441.423 L -629.782,415.765 L -636.244,415.355 L -633.03,411.058 L -630.553,413.848 L -630.971,409.935 L -640.442,408.164 L -642.084,399.442 L -681.811,377.189 L -694.257,359.868 L -694.586,312.887 L -703.373,292.646 L -707.731,291.653 L -711.222,302.233 L -714.923,318.574 L -711.38,336.827 L -716.44,348.063 L -729.304,346.377 L -739.848,355.574 L -751.513,353.09 L -749.744,361.038 L -755.115,354.936 L -772.692,353.318 L -765.666,351.853 L -767.573,339.623 L -770.719,344.868 L -780.289,342.252 L -787.94,349.745 L -809.971,347.562 L -810.635,350.647 L -818.305,339.149 L -835.908,331.229 L -843.351,305.722 L -852.862,292.5 L -859.324,263.71 L -853.311,228.256 L -838.92,214.684 L -821.717,220.602 L -814.999,217.686 L -797.085,248.721 L -767.755,251.591 L -782.678,212.024 L -782.944,220.174 L -786.369,217.44 L -789.033,197.232 L -796.113,186.431 L -790.837,184.794 z M -596.465,511.354 L -633.348,499.344 L -610.042,498.136 L -596.465,511.354 z M -658.586,492.54 L -659.811,489.009 L -658.586,492.54 z M -900.181,499.523 L -898,487.444 L -893.992,496.684 L -897.331,494.439 L -900.181,499.523 z M -705.284,632.62 L -720.797,621.825 L -722.307,605.899 L -717.283,604.538 L -719.173,600.242 L -715.996,602.966 L -723.102,589.417 L -714.106,595.929 L -705.284,632.62 z M -635.02,494.107 L -668.583,483.593 L -656.134,480.398 L -629.485,492.657 L -635.02,494.107 z M -627.3,518.006 L -628.777,528.238 L -652.927,538.079 L -656.807,530.953 L -677.607,530.056 L -689.988,518.97 L -681.278,524.597 L -697.498,501.891 L -701.985,485.593 L -690.725,490.551 L -679.013,515.218 L -663.981,527.639 L -653.52,522.828 L -663.312,507.127 L -655.997,509.114 L -655.792,499.524 L -649.318,500.535 L -639.366,521.172 L -632.636,513.231 L -627.3,518.006 z M -688.276,555.697 L -709.685,544.602 L -699.621,541.326 L -676.618,550.107 L -683.683,542.858 L -673.928,538.415 L -653.659,539.902 L -651.387,553 L -657.77,555.503 L -660.084,564.359 L -664.756,559.153 L -668.277,567.394 L -688.276,555.697 z M -748.01,691.476 L -724.15,692.722 L -737.704,697.023 L -731.925,700.118 L -734.93,701.624 L -755.821,690.821 L -748.01,691.476 z M -715.288,729.538 L -711.38,733.929 L -738.105,727.151 L -739.505,734.606 L -745.451,732.273 L -748.969,739.731 L -750.202,725.769 L -762.762,720.831 L -778.007,724.408 L -765.168,715.714 L -715.288,729.538 z M -727.47,784.118 L -763.266,779.699 L -766.551,778.172 L -746.391,774.94 L -766.665,767.163 L -760.828,764.085 L -748.138,769.481 L -759.362,762.879 L -755.397,762.622 L -740.553,770.015 L -731.435,768.614 L -718.62,778.17 L -735.384,777.349 L -727.47,784.118 z M -765.732,129.601 L -769.584,137.89 L -775.078,138.619 L -772.951,131.368 L -765.732,129.601 z" style="fill:#999;stroke-width:0" />
<path d="M 0,-771.416 L 6.117,-779.019 L 35.846,-781.09 L 75.665,-780.79 L 88.528,-772.883 L 92.421,-778.054 L 142.762,-785.53 L 188.076,-772.237 L 198.736,-777.521 L 206.262,-767.825 L 227.509,-783.003 L 237.864,-779.482 L 240.657,-772.045 L 264.247,-762.725 L 288.563,-755.225 L 295.868,-760.829 L 305.011,-757.756 L 303.11,-752.886 L 313.558,-755.772 L 318.956,-745.885 L 339.025,-742.446 L 357.138,-750.296 L 352.964,-756.668 L 424.912,-768.212 L 432.37,-778.077 L 441.311,-774.793 L 442.627,-780.605 L 449.779,-782.047 L 439.156,-790.504 L 465.107,-785.905 L 474.534,-778.155 L 495.419,-773.342 L 510.584,-763.261 L 508.821,-756.581 L 515.083,-751.07 L 519.441,-758.728 L 551.936,-757.673 L 553.537,-766.129 L 590.501,-764.217 L 605.14,-750.694 L 620.929,-760.795 L 632.657,-756.384 L 638.755,-760.416 L 649.04,-754.416 L 654.916,-758.399 L 652.014,-765.029 L 648.612,-762.734 L 650.324,-765.814 L 664.367,-776.869 L 700.258,-766.915 L 702.678,-774.859 L 711.307,-775.195 L 711.575,-781.259 L 725.697,-783.662 L 742.728,-779.744 L 741.888,-775.669 L 748.321,-771.689 L 748.185,-784.27 L 760.478,-778.852 L 768.991,-781.808 L 770.189,-789.772 L 779.691,-790.343 L 793.598,-780.807 L 817.925,-784.653 L 833.578,-775.556 L 819.411,-785.169 L 847.591,-800.587 L 861.318,-802.44 L 862.59,-805.429 L 854.919,-807.974 L 861.79,-815.759 L 858.869,-817.985 L 884.11,-822.991 L 881.767,-828.605 L 892.786,-830.953 L 895.856,-837.815 L 891.591,-851.736 L 909.125,-853.791 L 909.129,-864.143 L 913.556,-864.11 L 886.395,-877.374 L 812.186,-896.609 L 782.27,-914.672 L 799.21,-908.61 L 798.997,-911.655 L 808.584,-910.278 L 840.13,-926.533 L 639.707,-1001.242 L -637.721,-1001.875 L -837.865,-927.638 L -778.322,-920.357 L -779.74,-917.334 L -764.668,-911.004 L -773.558,-906.57 L -745.531,-902.607 L -744.643,-891.855 L -730.249,-893.124 L -740.414,-889.459 L -740.456,-884.431 L -719.02,-872.01 L -705.522,-871.251 L -683.338,-860.04 L -678,-855.695 L -680.321,-852.028 L -591.788,-853.804 L -568.545,-859.685 L -579.14,-853.095 L -570.438,-850.992 L -561.811,-856.945 L -540.137,-856.535 L -559.402,-844.127 L -552.516,-842.974 L -567.535,-840.664 L -580.037,-831.069 L -565.612,-825.157 L -553.669,-827.875 L -556.695,-824.614 L -547.9,-823.991 L -534.536,-830.513 L -492.298,-825.1 L -445.884,-827.187 L -436.178,-831.303 L -441.151,-827.162 L -436.847,-821.407 L -406.459,-830.096 L -402.332,-828.143 L -415.498,-815.767 L -434.984,-811.352 L -426.184,-805.358 L -439.15,-803.252 L -441.648,-791.749 L -433.121,-789.592 L -426.694,-779.847 L -411.064,-791.205 L -407.828,-775.653 L -418.843,-759.765 L -413.488,-761.415 L -410.361,-754.61 L -413.53,-750.972 L -402.614,-730.154 L -376.008,-714.078 L -373.797,-717.36 L -382.082,-722.988 L -380.375,-753.371 L -360.307,-792.692 L -343.777,-817.595 L -333.375,-824.349 L -339.31,-827.732 L -333.489,-836.061 L -336.3,-839.886 L -282.15,-864.335 L -274.545,-871.725 L -247.232,-869.477 L -226.46,-874.641 L -216.571,-868.058 L -181.412,-869.788 L -143.893,-847.715 L -145.207,-843.902 L -117.82,-825.184 L -107.613,-809.369 L -75.351,-802.739 L -71.313,-795.25 L -55.309,-785.887 L -16.789,-782.772 L -9.073,-779.832 L -2.566,-769.011 L 0,-771.416 z" style="fill:#999;stroke-width:0" />
<path d="M 0,548.887 L 11.294,557.249 L 15.714,567.339 L 37.038,575.754 L 31.687,578.323 L 37.138,589.472 L 37.388,583.516 L 43.535,584.507 L 40.075,591.835 L 43.255,594.357 L 55.432,592.275 L 54.765,597.759 L 59.163,597.733 L 63.841,593.737 L 57.69,626.549 L 59.267,633.798 L 72.701,642.26 L 72.256,629.37 L 77.703,627.114 L 69.78,620.856 L 73.225,605.696 L 79.752,605.8 L 81.681,601.293 L 94.282,606.01 L 105.266,598.696 L 127.574,610.947 L 143.04,607.607 L 152.278,619.9 L 150.381,613.193 L 153.941,612.909 L 152.705,641.013 L 159.444,644.038 L 166.061,637.269 L 172.425,638.253 L 165.125,661.745 L 207.665,669.592 L 194.753,676.497 L 158.456,667.801 L 156.465,673.526 L 145.744,676.607 L 141.416,700.563 L 163.629,726.987 L 157.457,733.903 L 145.238,735.025 L 137.977,728.716 L 140.655,718.243 L 118.336,700.534 L 117.757,674.366 L 111.167,670.484 L 122.497,675.218 L 129.46,667.994 L 124.537,662.453 L 112.57,663.1 L 127.418,661.998 L 112.612,653.893 L 117,650.079 L 116.124,632.644 L 103.128,624.826 L 102.173,617.885 L 94.058,617.46 L 72.996,667.015 L 70.778,657.639 L 54.05,646.492 L 39.996,651.722 L 42.949,660.098 L 37.038,660.384 L 38.034,664.203 L 46.009,673.361 L 36.68,669.841 L 36.305,677.521 L 50.3,680.807 L 50.609,684.807 L 37.302,680.269 L 35.854,688.65 L 39.073,689.004 L 35.573,689.328 L 39.596,694.984 L 40.197,691.716 L 46.324,694.754 L 42.779,695.092 L 47.996,701.524 L 75.121,711.47 L 65.702,709.976 L 80.126,726.157 L 84.089,742.301 L 108.459,762.716 L 101.698,763.431 L 108.55,766.09 L 110.373,774.197 L 118.548,771.368 L 115.737,777.338 L 121.029,778.992 L 122.944,774.944 L 131.974,783.47 L 139.677,780.082 L 145.536,790.947 L 152.234,790.248 L 150.349,783.59 L 156.457,790.861 L 158.596,784.968 L 165.948,792.904 L 168.116,788.034 L 185.168,785.177 L 171.712,783.198 L 183.14,777.9 L 196.528,779.112 L 198.72,774.98 L 221.237,772.088 L 248.948,760.433 L 259.271,748.048 L 247.271,739.475 L 201.014,749.125 L 221.294,737.075 L 226.016,720.6 L 247.161,713.7 L 248.664,718.609 L 237.274,725.004 L 238.308,729.027 L 266.289,721.978 L 256.11,732.858 L 260.35,738.862 L 268.171,744.892 L 281.862,738.475 L 278.612,751.504 L 266.757,767.649 L 286.944,763.078 L 289.148,760.482 L 281.583,754.64 L 294.065,747.653 L 299.333,751.785 L 298.514,758.226 L 325.708,774.162 L 337.511,766.301 L 356.037,776.503 L 366.501,771.335 L 368.927,777.029 L 363.78,785.519 L 386.524,783.356 L 417.663,771.225 L 418.43,778.447 L 399.098,787.707 L 388.822,804.004 L 393.775,809.027 L 393.265,823.147 L 403.785,823.108 L 410.676,821.63 L 414.667,809.183 L 446.856,775.331 L 448.113,762.637 L 436.893,756.599 L 440.575,751.776 L 451.864,751.281 L 459.504,767.811 L 451.933,775.473 L 453.8,780.4 L 460.414,782.191 L 474.099,769.265 L 485.067,768.077 L 474.724,771.278 L 468.488,781.78 L 444.833,782.867 L 436.606,798.066 L 423.676,807.866 L 424.031,821.429 L 436.559,807.654 L 453.826,804.827 L 436.995,813.249 L 444.951,813.268 L 443.993,819.269 L 450.654,819.793 L 478.155,814.106 L 476.613,808.574 L 482.147,800.865 L 491.221,796.905 L 480.894,813.484 L 460.014,820.985 L 448.083,831.067 L 475.938,838.71 L 464.019,848.469 L 484.494,859.205 L 484.355,863.329 L 521.141,867.159 L 514.439,869.872 L 523.312,872.907 L 518.747,879.626 L 525.942,884.325 L 547.883,878.593 L 551.15,873.231 L 571.396,877.375 L 593.293,869.97 L 586.299,869.625 L 596.542,866.18 L 597.168,860.147 L 582.139,834.386 L 603.861,847.186 L 594.889,849.9 L 611.479,848.195 L 609.541,851.633 L 622.086,843.846 L 626.332,844.303 L 620.425,846.451 L 629.718,849.925 L 664.499,845.489 L 671.095,846.963 L 664.727,854.576 L 671.282,855.227 L 704.035,850.883 L 717.596,837.934 L 742.665,829.242 L 735.124,840.039 L 771.662,838.486 L 775.606,842.083 L 762.004,855.522 L 794.426,855.878 L 783.665,855.334 L 789.148,851.821 L 794.69,854.71 L 798.028,847.329 L 797.997,855.108 L 810.309,856.032 L 817.804,853.466 L 815.716,850.937 L 844.617,845.332 L 872.684,851.044 L 907.349,838.668 L 913.704,844.045 L 931.302,844.19 L 930.581,847.401 L 956.33,840.322 L 943.692,848.199 L 944.303,852.962 L 966.06,855.609 L 999.408,850.304 L 1060.148,815.748 L 1057.418,811.245 L 1042.47,813.265 L 1049.682,811.842 L 1045.67,810.872 L 1051.94,805.948 L 1055.528,804.081 L 1049.796,808.41 L 1052.328,810.199 L 1067,806.472 L 1098.161,789.449 L 1080.309,792.377 L 1086.147,789.393 L 1084.541,761.331 L 1089.194,757.059 L 1069.373,760.377 L 1070.205,750.479 L 1061.504,756.832 L 1062.14,750.734 L 1056.314,748.089 L 1073.439,725.632 L 1083.608,724.395 L 1103.641,708.287 L 1095.126,709.445 L 1115.553,691.325 L 1110.706,688.436 L 1111.232,681.385 L 1121.389,672.857 L 1118.279,667.804 L 1128.846,645.65 L 1054.656,706.091 L 1048.152,717.844 L 1051.411,723.412 L 1040.928,750.414 L 1042.409,756.482 L 1022.809,777.082 L 1019.812,772.632 L 1030.235,764.318 L 1026.699,761.567 L 1028.344,751.916 L 1011.161,763.952 L 997.751,761.22 L 1004.169,740.785 L 1015.854,730.042 L 1003.787,724.562 L 993.031,731.898 L 979.619,731.868 L 981.69,725.84 L 954.97,723.406 L 946.004,718.272 L 950.158,664.632 L 959.941,664.74 L 975.357,653.68 L 979.449,658.714 L 981.728,655.675 L 978.044,661.994 L 981.97,662.414 L 1003.462,654.596 L 1006.104,652.309 L 997.906,652.95 L 1016.882,641.983 L 1044.621,600.466 L 1051.869,570.504 L 1053.483,535.744 L 1044.493,525.804 L 1030.023,533.18 L 1028.155,509.695 L 1033.113,501.792 L 1024.295,486.979 L 1053.639,460.951 L 1067.071,438.659 L 1056.75,424.332 L 1048.636,423.381 L 1044.644,438.141 L 1033.626,450.02 L 1039.189,451.415 L 1029.807,462.283 L 1019.375,462.26 L 1010.866,480.537 L 1000.535,484.628 L 992.484,483.62 L 981.81,470.37 L 979.434,490.634 L 972.436,496.88 L 962.525,473.191 L 954.731,472.385 L 956.129,464.404 L 977.277,449.704 L 981.391,449.509 L 983.635,456.864 L 1001.613,454.67 L 1003.316,447.514 L 1000.996,449.715 L 994.24,437.93 L 991.473,439.458 L 990.882,421.024 L 1002.798,415.142 L 1027.297,388.101 L 1014.573,389.561 L 1032.589,377.749 L 1022.259,367.238 L 1036.636,365.322 L 1041.1,346.89 L 1036.705,325.193 L 1033.356,326.54 L 1036.228,315.865 L 1033.05,302.033 L 1020.872,280.762 L 1001.017,270.751 L 996.365,275.261 L 993.095,265.254 L 972.887,257.679 L 973.587,244.307 L 965.779,259.855 L 946.905,255.055 L 938.071,235.323 L 938.237,225.152 L 974.631,184.6 L 984.319,154.794 L 983.804,136.587 L 965.404,125.003 L 964.046,116.846 L 960.311,117.957 L 952.266,103.099 L 950.265,120.237 L 936.38,126.367 L 919.806,148.73 L 909.754,150.927 L 908.27,159.399 L 899.549,159.963 L 898.712,111.707 L 904.684,109.995 L 916.403,83.245 L 924.776,79.798 L 939.956,62.048 L 949.701,18.923 L 944.007,16.847 L 925.06,32.599 L 911.383,74.652 L 891.989,97.678 L 892.069,137.507 L 873.495,194.496 L 863.939,204.038 L 853.8,186.26 L 843.526,189.364 L 839.884,216.156 L 818.628,240.752 L 804.687,266.44 L 797.102,269.059 L 795.451,256.968 L 779.888,252.188 L 776.141,257.619 L 768.905,250.503 L 764.765,232.795 L 756.004,226.911 L 734.234,191.832 L 718.223,179.439 L 721.441,121.455 L 704.134,93.969 L 694.048,103.879 L 655.425,188.498 L 638.926,254.974 L 635.867,256.892 L 633.801,242.27 L 623.38,238.904 L 607.171,256.241 L 614.97,257.387 L 618.313,264.652 L 606.209,262.091 L 579.981,290.02 L 539.258,285.316 L 500.538,291.982 L 491.191,307.201 L 476.681,300.802 L 465.658,302.01 L 445.236,315.025 L 427.659,340.562 L 419.247,342.82 L 419.635,339.033 L 412.224,339.458 L 414.801,326.789 L 433.789,302.979 L 441.291,284.894 L 444.735,295.458 L 447.526,293.498 L 449.657,274.942 L 472.504,273.229 L 490.525,298.198 L 495.177,278.304 L 515.089,267.701 L 526.032,250.866 L 512.372,229.057 L 513.921,217.58 L 504.959,212.778 L 502.92,204.369 L 495.538,202.462 L 492.728,194.13 L 472.574,187.231 L 468.714,177.046 L 443.502,165.602 L 436.849,157.514 L 414.061,151.076 L 404.681,143.68 L 391.591,144.646 L 380.159,190.476 L 361.466,221.844 L 347.137,235.226 L 336.826,267.529 L 328.553,273.079 L 300.512,315.578 L 300.701,327.243 L 295.658,311.556 L 277.26,340.348 L 276.172,347.546 L 286.505,348.046 L 293.59,354.505 L 302.364,389.604 L 299.775,413.6 L 274.63,403.93 L 260.46,412.853 L 249.737,404.996 L 242.555,410.762 L 228.875,409.942 L 233.89,412.803 L 219.056,426.982 L 220.599,437.528 L 214.254,444.093 L 220.29,451.852 L 243.055,455.739 L 236.271,458.873 L 238.762,461.072 L 252.909,459.551 L 269.571,470.747 L 284.199,471.618 L 309.391,459.66 L 327.417,460.946 L 334.946,467.105 L 331.105,481.55 L 289.249,507.31 L 301.459,517.425 L 295.019,522.473 L 304.789,528.586 L 292.498,528.177 L 276.195,517.469 L 275.814,520.96 L 274.622,514.142 L 264.608,517.958 L 288.066,507.097 L 269.187,497.781 L 264.399,506.038 L 257.071,508.215 L 263.383,517.061 L 249.721,517.544 L 249.254,523.999 L 239.284,516.874 L 236.197,518.964 L 238.648,515.416 L 221.383,475.385 L 228.112,464.583 L 235.628,461.75 L 215.16,448.751 L 218.344,454.549 L 198.38,457.409 L 194.697,455.126 L 195.801,446.281 L 186.232,451.808 L 184.523,448.22 L 190.729,438.502 L 185.295,434.707 L 198.547,423.562 L 174.57,427.916 L 157.063,451.436 L 158.021,466.216 L 128.425,485.173 L 117.298,502.512 L 114.87,504.764 L 110.952,499.835 L 104.095,509.581 L 97.351,506.333 L 99.031,492.017 L 108.101,486.157 L 115.348,472.725 L 127.863,468.003 L 128.572,462.934 L 150.281,448.74 L 149.84,445.149 L 136.789,449.906 L 135.192,443.374 L 140.237,434.762 L 133.025,423.492 L 127.437,447.277 L 101.966,462.988 L 86.704,477.545 L 81.516,489.248 L 71.08,494.725 L 50.932,480.434 L 35.136,483.908 L 26.194,480.751 L 25.539,465.23 L 4.46,449.348 L -5.153,418.756 L -14.718,410.716 L -32.251,409.176 L -45.161,401.866 L -56.793,414.658 L -70.671,413.332 L -70.589,428.517 L -76.368,431.709 L -68.982,457.546 L -72.406,480.566 L -62.098,486.678 L -10.625,483.68 L -7.352,505.623 L -4.394,503.714 L -7.152,512.833 L -15.091,524.336 L -35.789,538.021 L -22.51,543.446 L -12.097,541.078 L -10.309,552.885 L 0,548.887 z M 1024.515,550.38 L 1019.316,555.365 L 1024.515,550.38 z M 580.328,536.767 L 573.081,528.206 L 582.853,513.922 L 579.246,525.001 L 584.482,533.239 L 612.693,533.613 L 612.534,537.65 L 580.328,536.767 z M 773.394,655.282 L 776.278,625.956 L 779.629,626.279 L 774.483,610.851 L 767.203,607.248 L 773.117,603.934 L 778.84,606.698 L 786.862,622.863 L 784.263,632.393 L 786.972,631.09 L 773.394,655.282 z M 191.49,659.143 L 188.021,657.992 L 194.149,648.923 L 191.49,659.143 z M 96.599,655.664 L 91.215,661.359 L 86.349,651.086 L 96.599,655.664 z M 407.586,456.787 L 400.495,442.484 L 407.914,423.604 L 431.282,414.095 L 447.011,417.687 L 438.153,452.813 L 431.754,451.749 L 428.48,458.791 L 428.62,462.784 L 440.521,460.157 L 443.046,465.541 L 432.135,475.748 L 425.103,471.782 L 426.834,467.615 L 421.541,483.7 L 411.669,487.556 L 396.768,502.999 L 407.474,503.184 L 404.869,510.181 L 410.452,513.089 L 430.868,513.424 L 411.565,531.461 L 397.23,533.316 L 379.068,525.354 L 382.849,523.337 L 379.112,517.591 L 372.691,521.88 L 369.37,502.442 L 377.908,492.067 L 378.484,495.237 L 388.142,475.034 L 407.586,456.787 z M 469.978,524.1 L 466.525,526.035 L 462.467,521.272 L 458.629,510.361 L 464.288,495.969 L 476.509,494.726 L 486.071,511.432 L 476.538,523.529 L 478.937,530.557 L 472.559,530.356 L 469.978,524.1 z M 209.62,689.24 L 204.507,685.563 L 213.77,669.927 L 223.505,674.536 L 219.757,684.255 L 209.62,689.24 z " style="fill:#999;stroke-width:0" />
    </g>
  </g>
  
</svg>
